<svg xmlns="http://www.w3.org/2000/svg" width="32" height="32" viewBox="0 0 8.467 8.467" id="sword">
  <g transform="translate(386.828 -417.484)">
    <path d="M-381.22656 423.24023a.13230489.13230489 0 0 0-.13086.13477v.16602a.13230489.13230489 0 1 0 .26367 0V423.375a.13230489.13230489 0 0 0-.13281-.13477zM-381.42188 423.64453l-.18945.008a.13230489.13230489 0 1 0 .0117.26368l.18945-.008a.13230489.13230489 0 1 0-.0117-.26367zM-380.99023 423.64648a.13245028.13245028 0 0 0-.0254.26368l.20703.041a.13234037.13234037 0 1 0 .0508-.25976l-.20508-.041a.13230489.13230489 0 0 0-.0273-.004zM-381.23633 423.96875a.13230489.13230489 0 0 0-.11719.14648l.0176.17383a.1324453.1324453 0 1 0 .26367-.0254l-.0176-.17383a.13230489.13230489 0 0 0-.14649-.12109zM-385.48438 421.85938a.13230489.13230489 0 0 0-.1289.13476v.16602a.13230489.13230489 0 1 0 .26367 0v-.16602a.13230489.13230489 0 0 0-.13477-.13476zM-385.86914 421.61719a.13281376.13281376 0 0 0 .002.26562l.18946.008a.13230489.13230489 0 1 0 .0117-.26367l-.18945-.008a.13230489.13230489 0 0 0-.0137-.002zM-385.04297 421.58008a.13230489.13230489 0 0 0-.0215.004l-.20703.041a.13234528.13234528 0 1 0 .0508.25977l.20703-.041a.13264648.13264648 0 0 0-.0293-.26367zM-385.47656 421.125a.13230489.13230489 0 0 0-.11524.12109l-.0176.17383a.13245028.13245028 0 1 0 .26368.0254l.0156-.17383a.13230489.13230489 0 0 0-.14648-.14648z" color="#000" font-family="sans-serif" font-weight="400" overflow="visible" style="line-height:normal;font-variant-ligatures:normal;font-variant-position:normal;font-variant-caps:normal;font-variant-numeric:normal;font-variant-alternates:normal;font-feature-settings:normal;text-indent:0;text-align:start;text-decoration-line:none;text-decoration-style:solid;text-decoration-color:#000;text-transform:none;text-orientation:mixed;shape-padding:0;isolation:auto;mix-blend-mode:normal"></path>
    <path d="M-384.97133 420.39819c.0694-.00075.15762.068.15639.13739-.001.0654-.0866.12579-.152.12424-.0655-.002-.14586-.066-.14618-.13154-.00031-.0641.0777-.1294.14179-.13009zM-381.86248 422.76291c.0694-.00075.15762.068.15639.13739-.001.0654-.0866.12579-.152.12424-.0655-.002-.14586-.066-.14618-.13154-.00031-.0641.0777-.1294.14179-.13009z"></path>
    <path d="m -384.23828,418.32227 a 0.13230489,0.13230489 0 0 0 -0.12305,0.11523 c -0.0238,0.20429 -0.0868,0.34029 -0.17383,0.43164 -0.087,0.0913 -0.20405,0.14476 -0.36328,0.16797 a 0.13230489,0.13230489 0 0 0 -0.041,0.25 c 0.1538,0.079 0.30454,0.11282 0.41211,0.17383 0.10757,0.061 0.18018,0.131 0.2207,0.32617 a 0.13230489,0.13230489 0 0 0 0.26172,-0.0156 c 0.015,-0.16801 0.0557,-0.29717 0.11914,-0.375 0.0635,-0.0778 0.14827,-0.1255 0.32812,-0.12109 a 0.13230489,0.13230489 0 0 0 0.0195,-0.26172 c -0.17627,-0.0219 -0.25745,-0.0913 -0.33204,-0.19922 -0.0746,-0.10794 -0.12621,-0.25985 -0.19922,-0.41601 a 0.13230489,0.13230489 0 0 0 -0.1289,-0.0762 z" color="#000" font-family="sans-serif" font-weight="400" overflow="visible" style="line-height:normal;font-variant-ligatures:normal;font-variant-position:normal;font-variant-caps:normal;font-variant-numeric:normal;font-variant-alternates:normal;font-feature-settings:normal;text-indent:0;text-align:start;text-decoration-line:none;text-decoration-style:solid;text-decoration-color:#000;text-transform:none;text-orientation:mixed;shape-padding:0;isolation:auto;mix-blend-mode:normal"></path>
    <path fill="#ea6153" d="m -384.22458,418.76562 c 0.0315,0.0683 0.0521,0.13322 0.0977,0.19922 0.0526,0.0761 0.17481,0.10098 0.26172,0.15625 -0.0892,0.0372 -0.20868,0.0376 -0.26563,0.10743 -0.0575,0.0705 -0.0604,0.17077 -0.0879,0.25781 -0.0625,-0.085 -0.10135,-0.21143 -0.17969,-0.25586 -0.0615,-0.0349 -0.10893,-0.0494 -0.16797,-0.0723 0.0732,-0.0386 0.16478,-0.0467 0.22266,-0.10742 0.0657,-0.0689 0.0787,-0.19035 0.11914,-0.28516 z" color="#000" font-family="sans-serif" font-weight="400" overflow="visible" style="line-height:normal;font-variant-ligatures:normal;font-variant-position:normal;font-variant-caps:normal;font-variant-numeric:normal;font-variant-alternates:normal;font-feature-settings:normal;text-indent:0;text-align:start;text-decoration-line:none;text-decoration-style:solid;text-decoration-color:#000;text-transform:none;text-orientation:mixed;shape-padding:0;isolation:auto;mix-blend-mode:normal"></path>
    <path d="m -994.39258,745.82031 c -0.15271,0.0127 -0.30249,0.0519 -0.43554,0.1211 -0.28007,0.19275 -0.50342,0.33674 -0.67969,0.59961 -0.37644,0.44424 -0.31243,0.96171 -0.25196,1.3496 0.0226,0.14514 0.0547,0.25934 0.084,0.3711 l -3.92188,3.74609 c -0.0799,-0.0862 -0.11688,-0.13313 -0.27343,-0.28515 -0.34812,-0.33827 -0.75772,-0.72398 -1.24802,-0.91602 -0.5054,-0.20031 -1.0295,-0.1905 -1.4297,-0.0586 -0.6234,0.20485 -1.0705,0.50783 -1.4551,1.04101 -0.2461,0.41326 -0.3255,0.91495 -0.1543,1.39453 0.212,0.59486 0.7092,1.01778 1.1426,1.37305 0.1226,0.10056 0.1462,0.107 0.2344,0.17188 l -13.3809,13.5664 a 0.50004998,0.50004998 0 0 0 -0.074,0.0957 l -3.875,6.5625 a 0.50004998,0.50004998 0 0 0 0.6933,0.67969 l 6.9981,-4.3125 a 0.50004998,0.50004998 0 0 0 0.09,-0.0723 l 13.20902,-13.02344 c 0.0526,0.0759 0.0562,0.0958 0.13671,0.20117 0.33109,0.43329 0.72535,0.93483 1.30665,1.1582 0.44889,0.17273 0.944,0.13037 1.35937,-0.14062 0.63137,-0.41189 0.91396,-1.11538 1.00977,-1.75586 0.0941,-0.62891 -0.0877,-1.23366 -0.36133,-1.72852 -0.19654,-0.35527 -0.50082,-0.62985 -0.76758,-0.86328 l 3.86719,-3.98242 c 0.0853,0.011 0.083,0.0187 0.18359,0.0254 0.35074,0.0227 0.76181,0.0705 1.18164,-0.1914 0.27326,-0.17046 0.51003,-0.41437 0.67969,-0.70899 0.1697,-0.29442 0.28186,-0.66271 0.18359,-1.05469 -0.11111,-0.44303 -0.41172,-0.55234 -0.64258,-0.66406 0.10772,-0.24302 0.25566,-0.51416 0.15626,-0.92383 -0.14778,-0.60763 -0.6089,-1.09896 -1.24805,-1.23242 -0.46545,-0.0971 -0.7726,0.0969 -1.04102,0.23633 -0.003,-0.004 -0.004,-0.003 -0.008,-0.008 -0.16706,-0.25663 -0.34551,-0.57994 -0.80469,-0.72266 -0.004,-0.003 -0.01,-0.004 -0.0137,-0.008 -0.14192,-0.0385 -0.29651,-0.0537 -0.44922,-0.041 z" color="#000" font-family="sans-serif" font-weight="400" overflow="visible" style="line-height:normal;font-variant-ligatures:normal;font-variant-position:normal;font-variant-caps:normal;font-variant-numeric:normal;font-variant-alternates:normal;font-feature-settings:normal;text-indent:0;text-align:start;text-decoration-line:none;text-decoration-style:solid;text-decoration-color:#000;text-transform:none;text-orientation:mixed;shape-padding:0;isolation:auto;mix-blend-mode:normal" transform="translate(-116.71 220.433)scale(.26458)"></path>
    <path fill="#ea6153" d="m -994.37109,746.82812 h 0.002 c 0.055,-0.029 0.0576,-0.0261 0.1543,0 -0.0541,-0.0113 0.13094,0.12724 0.25,0.31055 0.12245,0.18822 0.20703,0.36133 0.20703,0.36133 0.13077,0.28611 0.49022,0.38203 0.74609,0.19922 0,0 0.15736,-0.1128 0.35352,-0.21484 0.19615,-0.10205 0.45525,-0.13175 0.38476,-0.14649 0.1561,0.034 0.42645,0.31212 0.47071,0.49414 -0.0189,-0.0764 -0.0248,0.15213 -0.10157,0.33203 -0.0782,0.17991 -0.16992,0.32422 -0.16992,0.32422 -0.1697,0.27855 -0.0314,0.64262 0.2793,0.73828 0,0 0.1508,0.0483 0.30273,0.125 0.095,0.048 0.153,0.1209 0.17578,0.13477 -0.002,0.0614 -0.019,0.14395 -0.0801,0.25 -0.0813,0.14135 -0.22262,0.28914 -0.3379,0.36133 0.008,-0.004 -0.30883,0.0634 -0.58398,0.0449 -0.20372,-0.0151 -0.29683,-0.0387 -0.37695,-0.0527 l -1.97071,-1.93359 c -0.0227,-0.0627 -0.0676,-0.19423 -0.10351,-0.42187 -0.0431,-0.27553 0.008,-0.53501 0.0234,-0.55274 0.1828,-0.21559 0.31504,-0.32256 0.375,-0.35352 z" color="#000" font-family="sans-serif" font-weight="400" overflow="visible" style="line-height:normal;font-variant-ligatures:normal;font-variant-position:normal;font-variant-caps:normal;font-variant-numeric:normal;font-variant-alternates:normal;font-feature-settings:normal;text-indent:0;text-align:start;text-decoration-line:none;text-decoration-style:solid;text-decoration-color:#000;text-transform:none;text-orientation:mixed;shape-padding:0;isolation:auto;mix-blend-mode:normal" transform="translate(-116.71 220.433)scale(.26458)"></path>
    <path fill="#87d4f6" d="m -995.11914,749.11523 1.58789,1.55665 -3.35156,3.44921 c -0.0468,-0.20622 -0.10837,-0.41564 -0.22657,-0.61914 -0.32844,-0.56564 -0.88269,-0.90034 -1.40234,-1.10156 -0.0152,-0.006 -0.026,-0.004 -0.041,-0.01 z" color="#000" font-family="sans-serif" font-weight="400" overflow="visible" style="line-height:normal;font-variant-ligatures:normal;font-variant-position:normal;font-variant-caps:normal;font-variant-numeric:normal;font-variant-alternates:normal;font-feature-settings:normal;text-indent:0;text-align:start;text-decoration-line:none;text-decoration-style:solid;text-decoration-color:#000;text-transform:none;text-orientation:mixed;shape-padding:0;isolation:auto;mix-blend-mode:normal" transform="translate(-116.71 220.433)scale(.26458)"></path>
    <path fill="#3d6591" d="m -1001.873,751.66211 c 0.1366,0.005 0.2726,0.031 0.3867,0.0762 0.1859,0.0726 0.6025,0.39851 0.914,0.70117 0.3115,0.30274 0.5469,0.56836 0.5469,0.56836 0.0851,0.10167 0.20757,0.16602 0.33985,0.17774 0,0 0.63407,0.0773 0.8125,0.14648 0.38162,0.14778 0.74358,0.40183 0.90039,0.67188 0.0507,0.0873 0.13308,0.39934 0.17578,0.6582 0.0427,0.2589 0.0606,0.4707 0.0606,0.4707 0.0113,0.14476 0.0887,0.27862 0.20703,0.36328 0,0 0.20262,0.1498 0.43555,0.35352 0.2332,0.20372 0.48675,0.48473 0.54492,0.58984 0.19351,0.34961 0.30071,0.77404 0.25195,1.09961 -0.0643,0.42936 -0.29362,0.89109 -0.56835,1.07032 -0.093,0.0608 -0.34182,0.0833 -0.45899,0.0391 -0.16327,-0.0627 -0.57377,-0.44709 -0.86328,-0.82617 -0.28951,-0.37909 -0.49414,-0.72461 -0.49414,-0.72461 -0.0801,-0.13607 -0.2201,-0.22676 -0.37695,-0.24414 0,0 -0.34558,-0.0398 -0.75196,-0.13282 -0.4065,-0.0933 -0.8724,-0.28051 -0.9746,-0.375 -0.1035,-0.096 -0.3346,-0.54479 -0.4589,-0.94531 -0.1244,-0.40055 -0.1836,-0.75391 -0.1836,-0.75391 -0.027,-0.13379 -0.1058,-0.25089 -0.2207,-0.32421 0,0 -0.3509,-0.2262 -0.7325,-0.53907 -0.3814,-0.31256 -0.7697,-0.74936 -0.8339,-0.92968 -0.048,-0.13493 -0.023,-0.40511 0.066,-0.55274 0.1493,-0.25058 0.5103,-0.48389 0.8789,-0.5918 v -0.002 c 0.1217,-0.0355 0.2598,-0.0501 0.3965,-0.0449 z" color="#000" font-family="sans-serif" font-weight="400" overflow="visible" style="line-height:normal;font-variant-ligatures:normal;font-variant-position:normal;font-variant-caps:normal;font-variant-numeric:normal;font-variant-alternates:normal;font-feature-settings:normal;text-indent:0;text-align:start;text-decoration-line:none;text-decoration-style:solid;text-decoration-color:#000;text-transform:none;text-orientation:mixed;shape-padding:0;isolation:auto;mix-blend-mode:normal" transform="translate(-116.71 220.433)scale(.26458)"></path>
    <path d="m -991.86133,752.86719 c -0.75681,-0.1047 -1.44009,0.31795 -1.90429,0.88476 -0.46421,0.56686 -0.75708,1.31931 -0.66407,2.08985 0.073,0.60381 0.49651,1.04767 0.9668,1.33593 0.47025,0.28838 1.01642,0.44873 1.55859,0.38282 0.59399,-0.0722 1.12663,-0.39493 1.53516,-0.82617 0.4069,-0.42959 0.70218,-0.98427 0.71484,-1.59376 0.0113,-0.61232 -0.29393,-1.14594 -0.70703,-1.53515 -0.41291,-0.38922 -0.93942,-0.6608 -1.5,-0.73828 z" color="#000" font-family="sans-serif" font-weight="400" overflow="visible" style="line-height:normal;font-variant-ligatures:normal;font-variant-position:normal;font-variant-caps:normal;font-variant-numeric:normal;font-variant-alternates:normal;font-feature-settings:normal;text-indent:0;text-align:start;text-decoration-line:none;text-decoration-style:solid;text-decoration-color:#000;text-transform:none;text-orientation:mixed;shape-padding:0;isolation:auto;mix-blend-mode:normal" transform="translate(-116.71 220.433)scale(.26458)"></path>
    <path fill="#fad741" d="m -992,753.85547 c 0.32239,0.0446 0.69008,0.22661 0.95117,0.47265 0.26117,0.24605 0.40324,0.53342 0.39844,0.78907 -0.004,0.27175 -0.17467,0.63405 -0.44922,0.92383 -0.27439,0.28989 -0.63995,0.49674 -0.92383,0.53125 -0.23508,0.0302 -0.62552,-0.0624 -0.92187,-0.24415 -0.29632,-0.18179 -0.46735,-0.43195 -0.48828,-0.60546 -0.051,-0.42267 0.13083,-0.95428 0.44336,-1.33594 0.31256,-0.38166 0.70994,-0.56999 0.99023,-0.53125 z" color="#000" font-family="sans-serif" font-weight="400" overflow="visible" style="line-height:normal;font-variant-ligatures:normal;font-variant-position:normal;font-variant-caps:normal;font-variant-numeric:normal;font-variant-alternates:normal;font-feature-settings:normal;text-indent:0;text-align:start;text-decoration-line:none;text-decoration-style:solid;text-decoration-color:#000;text-transform:none;text-orientation:mixed;shape-padding:0;isolation:auto;mix-blend-mode:normal" transform="translate(-116.71 220.433)scale(.26458)"></path>
    <path fill="#fd982f" d="m -1002.2227,755.58594 c 0.014,0.0488 0.01,0.0497 0.027,0.10742 0.1436,0.46261 0.3156,0.99603 0.7305,1.38086 0.4138,0.38351 0.9558,0.51146 1.4257,0.61914 0.01,0.002 0.01,0.002 0.018,0.004 l -12.9746,12.79687 -5.2324,3.22656 2.8203,-4.76953 z" color="#000" font-family="sans-serif" font-weight="400" overflow="visible" style="line-height:normal;font-variant-ligatures:normal;font-variant-position:normal;font-variant-caps:normal;font-variant-numeric:normal;font-variant-alternates:normal;font-feature-settings:normal;text-indent:0;text-align:start;text-decoration-line:none;text-decoration-style:solid;text-decoration-color:#000;text-transform:none;text-orientation:mixed;shape-padding:0;isolation:auto;mix-blend-mode:normal" transform="translate(-116.71 220.433)scale(.26458)"></path>
    <path d="M-382.99414 421.85156a.13230489.13230489 0 0 0-.0781.0391l-3.25781 3.22461a.13230489.13230489 0 1 0 .18555.1875l3.25781-3.22461a.13230489.13230489 0 0 0-.10742-.22656zM-379.69922 420.25391a.13230489.13230489 0 0 0-.12695.13867l.0254.92578a.13287022.13287022 0 1 0 .26562-.008l-.0254-.92578a.13230489.13230489 0 0 0-.13867-.13086zM-379.18164 420.60938a.13230489.13230489 0 0 0-.13086.13281l-.004.54687a.13230489.13230489 0 1 0 .26368.002l.004-.54688a.13230489.13230489 0 0 0-.13281-.13476zM-378.69727 420.16406a.13230489.13230489 0 0 0-.12304.12696l-.0547.96289a.13298654.13298654 0 1 0 .26562.0137l.0527-.96094a.13230489.13230489 0 0 0-.14063-.14258zM-379.22852 420.01953a.03307622.03307622 0 0 0-.01.002.03307622.03307622 0 0 0-.002.002l-.13086.0547a.03307622.03307622 0 0 0-.006.004.03307622.03307622 0 0 0-.002.002.03307622.03307622 0 0 0-.006.004.03307622.03307622 0 0 0-.004.006.03307622.03307622 0 0 0-.002.006.03307622.03307622 0 0 0-.002.01.03307622.03307622 0 0 0 .002.01.03307622.03307622 0 0 0 .006.01.03307622.03307622 0 0 0 .002.002.03307622.03307622 0 0 0 .002.002.03307622.03307622 0 0 0 .008.006.03307622.03307622 0 0 0 .006.004.03307622.03307622 0 0 0 .01 0 .03307622.03307622 0 0 0 .01-.002.03307622.03307622 0 0 0 .002 0l.13086-.0566a.03307622.03307622 0 0 0 .002-.002.03307622.03307622 0 0 0 .006-.004.03307622.03307622 0 0 0 .006-.004.03307622.03307622 0 0 0 .002-.002.03307622.03307622 0 0 0 .002-.006.03307622.03307622 0 0 0 .002-.01.03307622.03307622 0 0 0 0-.01.03307622.03307622 0 0 0-.004-.01.03307622.03307622 0 0 0-.002-.002.03307622.03307622 0 0 0-.004-.006.03307622.03307622 0 0 0-.002-.002.03307622.03307622 0 0 0-.006-.004.03307622.03307622 0 0 0-.006-.002.03307622.03307622 0 0 0-.01-.002zM-379.18359 420.13477a.03307622.03307622 0 0 0-.002.002.03307622.03307622 0 0 0-.004 0l-.23828.0879a.03307622.03307622 0 0 0-.006.002.03307622.03307622 0 0 0-.006.004.03307622.03307622 0 0 0-.002.002.03307622.03307622 0 0 0-.004.006.03307622.03307622 0 0 0-.004.006.03307622.03307622 0 0 0-.002.006.03307622.03307622 0 0 0 .002.01.03307622.03307622 0 0 0 .002.01.03307622.03307622 0 0 0 .004.006.03307622.03307622 0 0 0 .002.002.03307622.03307622 0 0 0 .008.006.03307622.03307622 0 0 0 .006.004.03307622.03307622 0 0 0 .006.002.03307622.03307622 0 0 0 .01-.002.03307622.03307622 0 0 0 .006 0l.24023-.0879a.03307622.03307622 0 0 0 .006-.002.03307622.03307622 0 0 0 .002-.002.03307622.03307622 0 0 0 .008-.008.03307622.03307622 0 0 0 .002-.002.03307622.03307622 0 0 0 .002-.006.03307622.03307622 0 0 0 .002-.01.03307622.03307622 0 0 0 0-.01.03307622.03307622 0 0 0-.002-.006.03307622.03307622 0 0 0-.004-.006.03307622.03307622 0 0 0-.008-.008.03307622.03307622 0 0 0-.002-.002.03307622.03307622 0 0 0-.006-.002.03307622.03307622 0 0 0-.01-.002.03307622.03307622 0 0 0-.008 0zM-379.17383 420.25586a.03307622.03307622 0 0 0-.006.002.03307622.03307622 0 0 0-.002 0l-.24219.0996a.03307622.03307622 0 0 0-.006.004.03307622.03307622 0 0 0-.006.004.03307622.03307622 0 0 0-.002.002.03307622.03307622 0 0 0-.002.002.03307622.03307622 0 0 0-.004.006.03307622.03307622 0 0 0-.002.01.03307622.03307622 0 0 0 0 .01.03307622.03307622 0 0 0 .004.01.03307622.03307622 0 0 0 .004.006.03307622.03307622 0 0 0 .002.002.03307622.03307622 0 0 0 .002.002.03307622.03307622 0 0 0 .006.004.03307622.03307622 0 0 0 .006.002.03307622.03307622 0 0 0 .01.002.03307622.03307622 0 0 0 .01-.002.03307622.03307622 0 0 0 .004 0l.24024-.0996a.03307622.03307622 0 0 0 .006-.004.03307622.03307622 0 0 0 .006-.004.03307622.03307622 0 0 0 .002-.002.03307622.03307622 0 0 0 .002-.002.03307622.03307622 0 0 0 .004-.006.03307622.03307622 0 0 0 .002-.01.03307622.03307622 0 0 0 0-.01.03307622.03307622 0 0 0-.004-.01.03307622.03307622 0 0 0-.004-.006.03307622.03307622 0 0 0-.002-.002.03307622.03307622 0 0 0-.002-.002.03307622.03307622 0 0 0-.006-.004.03307622.03307622 0 0 0-.006-.002.03307622.03307622 0 0 0-.01-.002.03307622.03307622 0 0 0-.004 0zM-379.14258 420.38086a.03307622.03307622 0 0 0-.006.002.03307622.03307622 0 0 0-.004 0l-.14258.0586a.03307622.03307622 0 0 0-.002.002.03307622.03307622 0 0 0-.006.004.03307622.03307622 0 0 0-.002.002.03307622.03307622 0 0 0-.002.002.03307622.03307622 0 0 0-.002.002.03307622.03307622 0 0 0-.004.006.03307622.03307622 0 0 0-.002.006.03307622.03307622 0 0 0 0 .0137.03307622.03307622 0 0 0 .002.006.03307622.03307622 0 0 0 .004.006.03307622.03307622 0 0 0 .004.006.03307622.03307622 0 0 0 .002.002.03307622.03307622 0 0 0 .002.002.03307622.03307622 0 0 0 .006.004.03307622.03307622 0 0 0 .01.002.03307622.03307622 0 0 0 .01-.002.03307622.03307622 0 0 0 .006-.002l.14258-.0566a.03307622.03307622 0 0 0 .006-.004.03307622.03307622 0 0 0 .006-.004.03307622.03307622 0 0 0 .002-.002.03307622.03307622 0 0 0 .002-.002.03307622.03307622 0 0 0 .004-.006.03307622.03307622 0 0 0 .002-.01.03307622.03307622 0 0 0 0-.01.03307622.03307622 0 0 0-.004-.01.03307622.03307622 0 0 0-.004-.006.03307622.03307622 0 0 0-.002-.002.03307622.03307622 0 0 0-.002-.002.03307622.03307622 0 0 0-.006-.004.03307622.03307622 0 0 0-.006-.002.03307622.03307622 0 0 0-.01-.002.03307622.03307622 0 0 0-.004 0zM-380.06055 418.77148a.03969146.03969146 0 0 0-.0176.01.03969146.03969146 0 0 0-.01.0117.03969146.03969146 0 0 0 .006.0449.03969146.03969146 0 0 0 .0195.0117l.0977.0273a.03969146.03969146 0 0 0 .0293-.004.03969146.03969146 0 0 0 .0117-.01.03969146.03969146 0 0 0 .004-.0449.03969146.03969146 0 0 0-.008-.01.03969146.03969146 0 0 0-.006-.004.03969146.03969146 0 0 0-.0117-.004l-.0957-.0273a.03969146.03969146 0 0 0-.0195-.002zM-380.1875 418.90234a.03969146.03969146 0 0 0-.0215.008.03969146.03969146 0 0 0-.0137.0488.03969146.03969146 0 0 0 .0117.0156.03969146.03969146 0 0 0 .0176.008l.23438.041a.03969146.03969146 0 0 0 .0293-.006.03969146.03969146 0 0 0 .0117-.0117.03969146.03969146 0 0 0-.002-.0449.03969146.03969146 0 0 0-.008-.008.03969146.03969146 0 0 0-.0176-.008l-.23438-.041a.03969146.03969146 0 0 0-.008-.002zM-380.31055 419.04102a.03969146.03969146 0 0 0-.0137.006.03969146.03969146 0 0 0-.006.006.03969146.03969146 0 0 0-.006.006.03969146.03969146 0 0 0 .008.0508.03969146.03969146 0 0 0 .0137.008.03969146.03969146 0 0 0 .008.002l.28125.0449a.03969146.03969146 0 0 0 .0254-.006.03969146.03969146 0 0 0 .0117-.01.03969146.03969146 0 0 0 .002-.0449.03969146.03969146 0 0 0-.01-.0117.03969146.03969146 0 0 0-.0176-.008l-.28125-.043a.03969146.03969146 0 0 0-.0156 0zM-380.38672 419.17188a.03969146.03969146 0 0 0-.006.004.03969146.03969146 0 0 0-.01.006.03969146.03969146 0 0 0-.006.006.03969146.03969146 0 0 0 0 .0449.03969146.03969146 0 0 0 .008.01.03969146.03969146 0 0 0 .0176.008l.24804.0508a.03969146.03969146 0 0 0 .0391-.0117.03969146.03969146 0 0 0 .006-.041.03969146.03969146 0 0 0-.0117-.0156.03969146.03969146 0 0 0-.006-.006.03969146.03969146 0 0 0-.0117-.002l-.24805-.0527a.03969146.03969146 0 0 0-.0195 0zM-380.48438 419.29297a.03969146.03969146 0 0 0-.0176.006.03969146.03969146 0 0 0-.0117.01.03969146.03969146 0 0 0-.008.0137.03969146.03969146 0 0 0 0 .0234.03969146.03969146 0 0 0 .0176.0215.03969146.03969146 0 0 0 .01.004l.23242.0664a.03969146.03969146 0 0 0 .0371-.008.03969146.03969146 0 0 0 .006-.006.03969146.03969146 0 0 0 .006-.01.03969146.03969146 0 0 0-.008-.041.03969146.03969146 0 0 0-.0156-.0117.03969146.03969146 0 0 0-.004 0l-.23243-.0664a.03969146.03969146 0 0 0-.0117-.002zM-381.2168 419.80469c-.0991.0148-.19031.0718-.25.15039-.0585.0769-.0765.17184-.0742.25781a.06615245.06615245 0 0 0 0 .002c.002.0482.0184.0897.0332.12696.0148.0372.0293.0664.0293.0664a.0663858.0663858 0 1 0 .11914-.0586c0 0-.0128-.0249-.0254-.0566-.0126-.0318-.0231-.0733-.0234-.084-.002-.0641.0144-.13117.0469-.17382.0372-.0489.10258-.0902.16211-.0996.0143-.002.0709.007.11524.0215.0443.0147.0801.0312.0801.0312a.06615245.06615245 0 1 0 .0547-.11914c0 0-.0401-.02-.0918-.0371-.0517-.0171-.11147-.0368-.17578-.0273zM-379.06836 419.08203l-.26562.004.0117.69531.26563-.004z" color="#000" font-family="sans-serif" font-weight="400" overflow="visible" style="line-height:normal;font-variant-ligatures:normal;font-variant-position:normal;font-variant-caps:normal;font-variant-numeric:normal;font-variant-alternates:normal;font-feature-settings:normal;text-indent:0;text-align:start;text-decoration-line:none;text-decoration-style:solid;text-decoration-color:#000;text-transform:none;text-orientation:mixed;shape-padding:0;isolation:auto;mix-blend-mode:normal"></path>
  </g>
</svg>
