<svg xmlns="http://www.w3.org/2000/svg" width="64" height="64" id="funeral-death-gravestone-halloween">
  <g fill="none" fill-rule="evenodd">
    <path fill="#BABABA" d="M53.432 62.278H9.815V23.116c0-12.02 9.764-21.764 21.809-21.764 12.044 0 21.808 9.744 21.808 21.764v39.162Z"></path>
    <path fill="#2E2E30" d="M11.17 60.926h40.908v-37.81c0-11.255-9.176-20.412-20.454-20.412-11.279 0-20.454 9.157-20.454 20.412v37.81Zm42.262 2.704H9.816a1.354 1.354 0 0 1-1.355-1.352V23.116C8.46 10.37 18.85 0 31.624 0c12.772 0 23.163 10.37 23.163 23.116v39.162c0 .746-.607 1.352-1.355 1.352Z"></path>
    <path fill="#BABABA" d="M58.892 62.278H4.355v-8.076c0-1.014.823-1.836 1.839-1.836h50.86c1.015 0 1.838.822 1.838 1.836v8.076Z"></path>
    <path fill="#2E2E30" d="M5.71 60.926h51.828v-6.724a.484.484 0 0 0-.484-.484H6.194a.484.484 0 0 0-.484.484v6.724Zm53.183 2.704H4.355A1.354 1.354 0 0 1 3 62.278v-8.076a3.194 3.194 0 0 1 3.194-3.188h50.86a3.194 3.194 0 0 1 3.193 3.188v8.076c0 .746-.607 1.352-1.354 1.352Z"></path>
    <path fill="#FEFEFE" d="M31.624 15.502v23.942"></path>
    <path fill="#2E2E30" d="M31.624 40.796a1.354 1.354 0 0 1-1.355-1.352V15.5a1.354 1.354 0 0 1 2.71 0v23.943c0 .746-.608 1.352-1.355 1.352"></path>
    <path fill="#FEFEFE" d="M23.891 23.134h15.465"></path>
    <path fill="#2E2E30" d="M39.356 24.486H23.892a1.354 1.354 0 0 1-1.355-1.352c0-.747.607-1.352 1.355-1.352h15.464c.748 0 1.355.605 1.355 1.352 0 .746-.607 1.352-1.355 1.352m-.001-7.632a1.352 1.352 0 0 1-1.061-2.192l1.264-1.592-1.404-2.696a1.35 1.35 0 0 1 .088-1.393L41.86 3.76a1.356 1.356 0 0 1 1.885-.343 1.35 1.35 0 0 1 .343 1.882l-3.152 4.55 1.432 2.75a1.352 1.352 0 0 1-.14 1.463l-1.81 2.28a1.353 1.353 0 0 1-1.062.512m-19.59 26.663c-.269 0-.542-.08-.777-.246l-3.88-2.72a1.345 1.345 0 0 1-.382-.41l-.962-1.594-3.223 2.04a1.36 1.36 0 0 1-1.87-.42 1.35 1.35 0 0 1 .42-1.866l4.395-2.778a1.355 1.355 0 0 1 1.886.445l1.528 2.534 3.645 2.556a1.352 1.352 0 0 1-.78 2.459"></path>
    <path fill="#010202" d="M57.053 52.366h-3.62v-29.25c0-12.02-9.765-21.764-21.81-21.764-1.231 0-2.436.107-3.612.303 10.324 1.719 18.196 10.67 18.196 21.462v29.25h3.62c1.017 0 1.84.821 1.84 1.835v8.076h7.225v-8.076a1.837 1.837 0 0 0-1.839-1.836" opacity=".3"></path>
  </g>
</svg>
