<svg xmlns="http://www.w3.org/2000/svg" xmlns:xlink="http://www.w3.org/1999/xlink" width="64" height="64" id="cobweb-spider-net-spiderweb-trap-silk">
  <defs>
    <path id="a" d="M0 .351v22.577h63.191V.351H0z"></path>
  </defs>
  <g fill="none" fill-rule="evenodd">
    <path fill="#2E2E30" d="M27.553 51.254c2.82 0 5.635.597 8.216 1.767l2.708 1.23 1.551-2.54a19.936 19.936 0 0 1 9.795-8.164l2.491-.96-.6-2.607a19.936 19.936 0 0 1 1.287-12.686l1.18-2.584L51.55 23.1a19.933 19.933 0 0 1-8.165-9.794l-.93-2.412-2.522.582a19.93 19.93 0 0 1-12.687-1.288l-2.685-1.225-1.531 2.521a19.94 19.94 0 0 1-9.776 8.189l-2.413.936.585 2.518a19.938 19.938 0 0 1-1.256 12.689l-1.275 2.809 2.428 1.475a19.927 19.927 0 0 1 8.188 9.775l.968 2.494 2.6-.605a19.766 19.766 0 0 1 4.474-.511m11.214 5.744c-.176 0-.352-.037-.515-.112l-3.513-1.594a17.444 17.444 0 0 0-11.094-1.098l-3.163.735a1.247 1.247 0 0 1-1.7-.213l-.072-.087c-.15-.183-.242-.4-.273-.627l-1.251-3.224a17.421 17.421 0 0 0-7.159-8.546l-3.236-1.967a1.247 1.247 0 0 1-.599-1.068v-.384c0-.177.04-.352.112-.513L7.9 34.787a17.431 17.431 0 0 0 1.098-11.094l-.676-2.908a1.244 1.244 0 0 1-.09-1.655l.148-.185a1.226 1.226 0 0 1 1.063-.467l2.91-1.13a17.428 17.428 0 0 0 8.547-7.158l1.965-3.236c.204-.335.54-.54.899-.588.325-.16.717-.18 1.073-.018l3.446 1.574a17.42 17.42 0 0 0 11.09 1.124l3.043-.7c.32-.252.747-.334 1.145-.21l.225.07a1.246 1.246 0 0 1 .854 1.419l1.073 2.786a17.428 17.428 0 0 0 7.139 8.563l3.291 2.012c.15.092.28.215.38.36l.216.317c.247.361.287.824.105 1.221l-1.574 3.445a17.434 17.434 0 0 0-1.124 11.092l.775 3.37c.103.205.149.44.126.676l-.01.112a1.246 1.246 0 0 1-1.286 1.129l-3.031 1.166a17.431 17.431 0 0 0-8.563 7.139l-2.012 3.292a1.25 1.25 0 0 1-.697.542l-.312.095c-.12.038-.244.056-.368.056"></path>
    <path fill="#2E2E30" d="M28.844 44.437c1.957 0 3.91.414 5.7 1.227l1.497.678.856-1.401a13.839 13.839 0 0 1 6.797-5.666l1.348-.52-.324-1.41a13.83 13.83 0 0 1 .893-8.805l.645-1.412-1.464-.894a13.834 13.834 0 0 1-5.667-6.797l-.498-1.294-1.355.311c-2.934.676-6.062.36-8.804-.892l-1.478-.675-.844 1.388a13.828 13.828 0 0 1-6.784 5.682l-1.296.503.314 1.352a13.845 13.845 0 0 1-.872 8.806L16.8 36.18l1.327.806a13.826 13.826 0 0 1 5.682 6.784l.524 1.35 1.408-.328a13.672 13.672 0 0 1 3.104-.355m7.552 4.683c-.176 0-.352-.037-.515-.111l-2.367-1.074a11.312 11.312 0 0 0-7.21-.714l-2.057.479c-.01.006-.021.012-.03.019a1.25 1.25 0 0 1-1.593-.283 1.318 1.318 0 0 1-.241-.447l-.9-2.318a11.33 11.33 0 0 0-4.652-5.554l-2.18-1.325c-.371-.226-.599-.63-.599-1.065v-.258c0-.178.038-.354.112-.515l1.073-2.367a11.33 11.33 0 0 0 .714-7.21l-.432-1.859a1.245 1.245 0 0 1-.006-1.56l.1-.124c.236-.298.593-.467.963-.47l1.886-.731a11.325 11.325 0 0 0 5.552-4.652l1.325-2.18c.19-.314.498-.513.832-.577.313-.135.679-.143 1.013.01l2.32 1.06a11.336 11.336 0 0 0 7.21.73l1.967-.452a1.24 1.24 0 0 1 1.06-.153l.154.047c.538.167.897.675.876 1.238l-.003.058.684 1.779a11.331 11.331 0 0 0 4.64 5.565l2.217 1.355c.15.092.28.214.379.36l.146.213c.247.361.287.825.105 1.223l-1.06 2.32a11.331 11.331 0 0 0-.731 7.208l.513 2.229c.084.19.122.401.103.615-.05.584-.503 1.086-1.078 1.165l-2.096.807a11.331 11.331 0 0 0-5.565 4.64l-1.354 2.218a1.247 1.247 0 0 1-.697.54l-.21.065c-.12.038-.245.056-.368.056"></path>
    <path fill="#2E2E30" d="M30.053 38.05a8.1 8.1 0 0 1 3.345.72l.36.163.207-.337a8.117 8.117 0 0 1 3.987-3.325l.276-.106-.067-.291a8.114 8.114 0 0 1 .525-5.165l.143-.314-.371-.226a8.116 8.116 0 0 1-3.324-3.987l-.096-.248-.26.06a8.12 8.12 0 0 1-5.165-.524l-.348-.16-.199.328a8.119 8.119 0 0 1-3.98 3.334l-.249.096.06.259c.401 1.721.22 3.556-.51 5.166l-.18.395.294.179a8.117 8.117 0 0 1 3.334 3.98l.108.279.289-.068a8.058 8.058 0 0 1 1.821-.208m4.121 3.688c-.176 0-.352-.038-.514-.112l-1.292-.586a5.609 5.609 0 0 0-3.572-.354l-1.042.243a1.246 1.246 0 0 1-1.76-.732l-.484-1.248a5.613 5.613 0 0 0-2.304-2.751l-1.19-.723c-.371-.226-.599-.63-.599-1.065v-.141c0-.178.038-.353.112-.515l.586-1.291a5.609 5.609 0 0 0 .354-3.571l-.211-.907a1.245 1.245 0 0 1 .075-1.433l.053-.068c.212-.27.522-.435.853-.47l.944-.367a5.601 5.601 0 0 0 2.752-2.304l.722-1.19c.18-.294.464-.489.775-.564.297-.11.638-.108.951.035l1.266.578a5.625 5.625 0 0 0 3.57.361l.989-.226c.292-.158.64-.193.962-.092l.084.027c.507.159.853.62.872 1.144l.334.869a5.61 5.61 0 0 0 2.299 2.756l1.209.74c.15.092.28.215.379.36l.08.117c.246.36.286.824.105 1.22l-.579 1.266a5.621 5.621 0 0 0-.362 3.57l.269 1.168c.07.18.099.377.08.576a1.277 1.277 0 0 1-1 1.12l-1.092.42a5.609 5.609 0 0 0-2.756 2.298l-.74 1.21c-.158.259-.406.451-.696.54l-.115.036c-.12.037-.244.056-.367.056"></path>
    <path fill="#2E2E30" d="M41.483 63.191c-.523 0-1.01-.332-1.183-.855L20.216 1.639a1.246 1.246 0 0 1 .791-1.575 1.245 1.245 0 0 1 1.576.791l20.084 60.697a1.245 1.245 0 0 1-1.184 1.639"></path>
    <path fill="#2E2E30" d="M59.663 48.282c-.2 0-.405-.05-.595-.152L2.903 17.587a1.246 1.246 0 1 1 1.192-2.19L60.26 45.94a1.246 1.246 0 0 1-.597 2.342"></path>
    <g transform="translate(0 19.97)">
      <mask id="b" fill="#fff">
        <use xlink:href="#a"></use>
      </mask>
      <path fill="#2E2E30" d="M1.247 22.928a1.246 1.246 0 0 1-.392-2.43L61.552.414a1.246 1.246 0 1 1 .784 2.366L1.639 22.865a1.25 1.25 0 0 1-.392.064" mask="url(#b)"></path>
    </g>
    <path fill="#2E2E30" d="M16.155 61.08a1.246 1.246 0 0 1-1.094-1.843L45.605 3.07a1.247 1.247 0 1 1 2.19 1.192L17.25 60.427a1.246 1.246 0 0 1-1.096.651"></path>
  </g>
</svg>
