<svg xmlns="http://www.w3.org/2000/svg" width="64" height="64" id="skull-bone-evil-halloween-scary">
  <g fill="none" fill-rule="evenodd">
    <path fill="#FEFEFE" d="M55.937 25.92c0-13.529-10.861-24.496-24.259-24.496C18.281 1.424 7.42 12.39 7.42 25.92a24.521 24.521 0 0 0 5.893 15.995c2.729 3.189 4.262 5.267 4.262 9.468v2.942c0 4.388 3.547 7.944 7.922 7.944h12.582c4.376 0 7.924-3.556 7.924-7.944V51.13c0-4.152 1.495-6.187 4.166-9.359a24.53 24.53 0 0 0 5.77-15.852"></path>
    <path fill="#2E2E30" d="M31.679 2.847C19.085 2.847 8.84 13.198 8.84 25.92a23.184 23.184 0 0 0 5.55 15.068c2.865 3.348 4.604 5.719 4.604 10.396v2.942c0 3.595 2.917 6.52 6.503 6.52h12.581c3.587 0 6.503-2.924 6.503-6.52v-3.194c0-4.599 1.701-6.95 4.502-10.278a23.205 23.205 0 0 0 5.434-14.934c0-12.721-10.245-23.072-22.838-23.072m6.4 60.846H25.496c-5.152 0-9.343-4.203-9.343-9.368v-2.942c0-3.603-1.135-5.286-3.92-8.542A26.039 26.039 0 0 1 6 25.919C6 11.627 17.52 0 31.679 0c14.159 0 25.678 11.627 25.678 25.92a26.066 26.066 0 0 1-6.103 16.77c-2.519 2.99-3.833 4.725-3.833 8.44v3.196c0 5.164-4.192 9.367-9.343 9.367"></path>
    <path fill="#010202" d="M31.679 1.424c-.962 0-1.908.063-2.84.173C40.896 3.017 50.256 13.36 50.256 25.92c0 6.047-2.171 11.58-5.769 15.851-2.671 3.173-4.166 5.208-4.166 9.36v3.194c0 4.387-3.548 7.943-7.924 7.943h5.68c4.376 0 7.924-3.556 7.924-7.943V51.13c0-4.152 1.495-6.187 4.166-9.36a24.525 24.525 0 0 0 5.77-15.851c0-13.529-10.862-24.496-24.26-24.496" opacity=".3"></path>
    <path fill="#FEFEFE" d="M25.497 62.269V56.38"></path>
    <path fill="#2E2E30" d="M25.497 63.693c-.784 0-1.42-.638-1.42-1.424v-5.888c0-.786.636-1.424 1.42-1.424.784 0 1.42.638 1.42 1.424v5.888c0 .786-.636 1.424-1.42 1.424"></path>
    <path fill="#FEFEFE" d="M37.37 62.269V56.38"></path>
    <path fill="#2E2E30" d="M37.371 63.693c-.784 0-1.42-.638-1.42-1.424v-5.888c0-.786.636-1.424 1.42-1.424.784 0 1.42.638 1.42 1.424v5.888c0 .786-.636 1.424-1.42 1.424"></path>
    <path fill="#FEFEFE" d="M31.434 62.269V56.38"></path>
    <path fill="#2E2E30" d="M31.434 63.693c-.784 0-1.42-.638-1.42-1.424v-5.888c0-.786.636-1.424 1.42-1.424.784 0 1.42.638 1.42 1.424v5.888c0 .786-.636 1.424-1.42 1.424"></path>
    <path fill="#4C4C4C" d="M31.434 48.022s3.577.378 4.509-2.043c.679-1.763-.544-4.448-1.887-6.632-1.258-2.048-2.622 2.23-2.622 2.23s-1.375-4.266-2.638-2.206c-1.336 2.18-2.548 4.851-1.871 6.608.931 2.421 4.509 2.043 4.509 2.043"></path>
    <path fill="#2E2E30" d="M29.591 40.832c-1.183 2.101-1.67 3.782-1.342 4.634.518 1.344 3.019 1.14 3.042 1.14.093-.01.193-.01.287 0 .023 0 2.523.204 3.041-1.14.332-.86-.168-2.567-1.343-4.647-.18.358-.36.795-.49 1.194-.189.588-.733.987-1.35.988h-.001a1.42 1.42 0 0 1-1.351-.983 8.832 8.832 0 0 0-.493-1.186m2.431 8.643a7.19 7.19 0 0 1-.588-.023c-1.755.14-4.819-.322-5.835-2.96-.735-1.913-.086-4.485 1.988-7.865.738-1.207 1.682-1.287 2.183-1.226.657.078 1.204.471 1.656 1.019.453-.556 1-.956 1.66-1.037.494-.064 1.44.016 2.179 1.218 2.085 3.392 2.741 5.972 2.003 7.89-.91 2.364-3.46 2.984-5.246 2.984"></path>
    <path fill="#4C4C4C" d="M26.503 29.423c-1.603 3.214-3.673 6.21-6.932 6.21-3.257 0-4.129-2.912-4.129-6.506 0-5.323 5.001-8.428 8.259-8.428s4.72 4.88 2.802 8.724"></path>
    <path fill="#2E2E30" d="M23.701 22.123c-2.386 0-6.84 2.406-6.84 7.005 0 5.081 1.831 5.081 2.71 5.081 2.046 0 3.792-1.671 5.661-5.422 1.086-2.176.787-4.454.05-5.65-.415-.673-.946-1.014-1.58-1.014m-4.13 14.934c-2.532 0-5.55-1.375-5.55-7.93 0-6.103 5.637-9.852 9.68-9.852 1.636 0 3.056.84 3.996 2.365 1.413 2.292 1.443 5.676.075 8.42-1.624 3.258-4.024 6.997-8.201 6.997"></path>
    <path fill="#4C4C4C" d="M36.854 29.423c1.603 3.214 3.673 6.21 6.932 6.21 3.257 0 4.129-2.912 4.129-6.506 0-5.323-5.001-8.428-8.259-8.428s-4.72 4.88-2.802 8.724"></path>
    <path fill="#2E2E30" d="M39.656 22.123c-.634 0-1.166.34-1.58 1.014-.737 1.196-1.037 3.474.049 5.65 1.868 3.751 3.615 5.422 5.66 5.422.88 0 2.71 0 2.71-5.081 0-4.599-4.452-7.005-6.839-7.005m4.129 14.934c-4.177 0-6.577-3.739-8.201-6.997-1.368-2.743-1.338-6.127.076-8.42.94-1.525 2.36-2.365 3.996-2.365 4.043 0 9.68 3.749 9.68 9.853 0 6.554-3.019 7.929-5.551 7.929"></path>
    <path fill="#FEFEFE" d="m21.401 3.73-2.206 7.954h4.28l3.257 2.985"></path>
    <path fill="#2E2E30" d="M26.73 16.093c-.342 0-.685-.124-.958-.374l-2.848-2.612h-3.73c-.444 0-.862-.207-1.13-.561a1.432 1.432 0 0 1-.238-1.244l2.206-7.953a1.42 1.42 0 1 1 2.736.762l-1.705 6.149h2.412c.355 0 .696.133.958.373l3.257 2.985a1.426 1.426 0 0 1-.96 2.475"></path>
  </g>
</svg>
