<?xml version="1.0" encoding="UTF-8"?>
<svg version="1.1" viewBox="0 0 1440 1440" width="360" height="360" xmlns="http://www.w3.org/2000/svg">
<path transform="translate(325,540)" d="m0 0 58 2 156 6 118 5 19 1 10-8 4-6h51l221 3 116 3 61 2 9 5 18 14 13 10 12 12 11 17 14 27 14 29 6 16 4 10v8l-13 61-9 41-7 27-4 12-7 9-14 14-11 9-12 10-7 3h-106l-330-3h-149l-16 4-36 12-17 4h-16l-51-3-139-6-25-2-7-3-11-13-15-20-11-16-13-18-13-19-1-2v-21l12-128 3-10 8-11 15-16 8-7 58-58 6-4 3-1z" fill="#BFB5BD"/>
<path transform="translate(215,638)" d="m0 0h3l4 10 9 11 8 10 4 6 1 86 1 36 5 4v2l4 1v2l5 2 7 5v2l5 2 11 8v2l4 1 16 11 8 4 6 1 103 2 91 2 12 1 140 3 179 4 60 1 34 1 161 2h17l11-4 31-16 4-9 12-51 10-43 12-55 3-13 9 3 23 9 10 3 2 4v8l-13 61-9 41-7 27-4 12-7 9-14 14-11 9-12 10-7 3h-106l-330-3h-149l-16 4-36 12-17 4h-16l-51-3-139-6-25-2-7-3-11-13-15-20-11-16-13-18-13-19-1-2v-21l12-128z" fill="#64473B"/>
<path transform="translate(325,540)" d="m0 0 58 2 156 6 118 5 19 1 10-8 4-6h51l221 3 116 3 36 1 17 1-4 3-24 13-19 10-10 4-5 1-149 2h-27l-77 1h-41l-80 1-65 2-38 1-48 1-76 3-72 2-48 2h-14-3v-8l-7-17-7-15-4-9v-2l-3-1 3-1z" fill="#D4CDD3"/>
<path transform="translate(215,638)" d="m0 0h3l4 10 9 11 8 10 4 6 1 86 1 36 5 4v2l4 1v2l5 2 7 5v2l5 2 11 8v2l4 1 16 11 8 4 6 1 103 2 91 2v1h-50l-48-1-105-1-4 5-8 7-13 13h-2l-2 4-8 8-5-1-4-1-11-14-12-16-11-16-13-18-13-19-1-2v-21l12-128z" fill="#98817B"/>
<path transform="translate(1196,669)" d="m0 0 9 3 23 9 10 3 2 4v8l-13 61-9 41-7 27-4 12-7 9-14 14-11 9-12 10-7 3-3-1-3-2-32-16-40-1-22-1v-1h57l11-4 31-16 4-9 12-51 10-43 12-55z" fill="#98817C"/>
<path transform="translate(211,796)" d="m0 0h31l3 3 5 2v2l4 1v2l5 2 7 5v2l5 2 11 8v2l4 1 16 11 8 4 6 1 103 2 91 2v1h-50l-48-1-105-1-4 5-8 7-13 13h-2l-2 4-8 8-5-1-4-1-11-14-12-16-11-16-13-18-12-17v-4z" fill="#826761"/>
<path transform="translate(1131,548)" d="m0 0h8l9 5 18 14 13 10 12 12-1 3-10 7-15 11-7 1-12-5-16-6-17-6-25-9-12-5 2-4 24-12 23-13z" fill="#A8918F"/>
<path transform="translate(1190,591)" d="m0 0 4 2 9 15 12 23 15 31 6 16 1 6-9-2-25-10-5-4v-2h-2l-10-15-16-27-5-7-1-5 14-11 4-5z" fill="#D4CDD3"/>
<path transform="translate(1175,839)" d="m0 0h23l6 1-3 5-15 15-11 9-12 10-7 3-3-1-3-2-32-16-40-1-22-1v-1h57l11-4 10-5 10-4 15-7z" fill="#816660"/>
<path transform="translate(327,595)" d="m0 0h2l-1 5-7 8-13 13-1 2h-2l-2 4-16 17-6 7h-2l-2 4-8 9-5 5-6 7h-2l-2 6-2 10-1 91 1 9 10 15 2 1v2l-5-1-5-3v-2l-4-1v-2l-4-2-1-1-1-106v-14l1-3h2l1-2 4-1v-2l5-3 5-6 8-7 4-5 14-14 6-8 4-4h2l2-4 7-7 1-2h2l2-4 9-9z" fill="#D4CDD3"/>
<path transform="translate(486,865)" d="m0 0 14 1 28 5 29 5 8 3-4 2-36 12-13 4-3-1-5-2-5-4-11-20z" fill="#80655F"/>
<path transform="translate(1170,771)" d="m0 0 2 1v8l-12 51-4 9-22 12-17 8-4 1h-17l-9-1-30-1 4-2 10-1h35l13-4 22-11 6-4 4-8 8-27 5-18 3-7 1-3h2z" fill="#D2CAD0"/>
<path transform="translate(690,540)" d="m0 0h14l-3 1 5 5 11 10 11 9 5 4v3h-6l-28-9-17-5-9-2 3-2 10-8z" fill="#FEFEFE"/>
<path transform="translate(215,638)" d="m0 0h3l4 10 9 11 8 10 4 6 1 86v35l-2-4-1-116-13-16-10-14-1-5-3 1z" fill="#A8918F"/>
</svg>
