<?xml version="1.0" encoding="UTF-8"?>
<svg version="1.1" viewBox="0 0 1440 1344" width="360" height="336" xmlns="http://www.w3.org/2000/svg">
<path transform="translate(350,217)" d="m0 0h45l15 2 10 2 201-3h166l106 1 132 2h18l13-1 7-2 10-1h45l10 4 9 9 9 14 8 16 11 23 9 25 8 29 4 21 2 18v34l-4 21-4 10-9 10-14 13-5 7-5 9-14 22-15 24-13 21-16 26-15 24-16 25-12 19-3 7v7l4 6 37 37 8 7 51 51 2 1v2h2l7 8 10 9 11 12 4 7v36l-5 38-7 40-14 75-7 42-9 49-7 38-6 24-5 9-6 4-16 3-16 1h-708l-14-2-8-4-4-4-4-13-7-33-14-76-9-48-12-71-9-60-2-21 1-18 2-9 4-6 5-6 11-9 26-24 8-8h2l1-3 8-7 13-13 8-7 9-9 8-7 11-11 8-7 10-11 8-7 4-2 2-7-6-11-11-15-11-16-13-18-11-16-21-31-13-19-29-43-7-11-9-11-7-8-5-4-7-10-5-13-2-10-1-10v-20l3-29 6-28 15-47 9-20 8-16 6-11 10-11z" fill="#944426"/>
<path transform="translate(1086,704)" d="m0 0 5 2 5 3 47 47 2 1v2h2l7 8 10 9 11 12 4 7v36l-5 38-7 40-14 75-7 42-9 49-7 38-6 24-5 9-6 4-16 3-16 1h-708l-14-2-8-4-4-4-4-13-7-33-14-76-9-48-12-71-9-60-2-21 1-18 2-9 4-6 5-6 11-9 26-24 8-8h2l1-3 8-7 13-13 5-4h2l5 10v4h2l6 15 4 6v2l9 2 3 2v6l-3 1-2 4-5 5v5l119-1h565v-2l-5-3-7-8-11-11v-2l-4-2-8-9 2-1v-2l8-1 9 1 6-5 3-1 5-5 5-9 2-7z" fill="#A9592F"/>
<path transform="translate(847,456)" d="m0 0h42l47 1h80l85 1h30l2 1-1 5h-2l-1 6-4 7-1 5 2 2 5-1 7-1v2l3 1-1 6-10 16-12 19-13 21-16 26-15 24-16 25-12 19-3 7v7l4 6 37 37 8 7v3l-5-3-1 10-5 7-3 5-3 1-1 3-7 4-2 2-17-1v4l8 9 20 20 2 3 4 2-1 3h-684l-1-5 10-10v-6l-11-4-5-8-5-13v-2h-2l-6-15 11-11 8-7 11-11 8-7 10-11 8-7 4-2 2-7-6-11-11-15-11-16-13-18-11-16-21-31-13-19-29-43-5-8v-7l6-2 6 2-1-7 3-1 13-1 36-1h211l58 1-2 4-6 7-3 10v66l2 13 6 9 8 4 10 1h105l10-3 7-5 4-8 2-5 1-11v-53l-1-12-6-11-5-5v-2z" fill="#5F2512"/>
<path transform="translate(1086,704)" d="m0 0 5 2 5 3 47 47 2 1v2h2l7 8 10 9 11 12 4 7v36l-5 38-7 40-14 75-7 42-9 49-7 38-6 24-5 9-6 4-16 3-16 1h-708l-14-2-8-4-4-4-4-13-7-33-14-76-9-48-12-71-9-60-2-21 1-18 2-9 4-6 5-6 11-9 26-24 8-8h2l1-3 8-7 13-13 5-4h2l5 10v4h2l6 15 4 6v2l9 2 3 2v6l-3 1-2 4-5 5v5l119-1h565v-2l-5-3-7-8-11-11v-2l-4-2-8-9 2-1v-2l8-1 9 1 6-5 3-1 5-5 5-9 2-7zm-527 120-2 9 1 3-2 2h-3v2l-16-2-5-1-8 2-7-1-4-4h-4l-2 3-3-2h-3l-1 3h-3l-4-3-2-6-4 1-1 3-9 1-6 4-5 2-9-4h-7l-7 2-10-1h-21l-22 3-6 3-1 6 1 5 3 9 4 11 2 5 2 7 2 10 1 2 1 9 3 5 1 16 2 6 3 19v25l4 10 1 25-1 22 1 8v13l4 31 3 6 1 1 113 1h465l32-1 6-3 5-26 3-15 5-18 3-13 2-6 3-16 4-11 4-7 4-21 6-21 5-27 9-57v-11l-3-1-47-2h-63l-224 1-65 1-33 1h-39l-9-1h-22l-12-2-5-4h-2v-5h-2l-1-2h-3l1-4z" fill="#DFA152"/>
<path transform="translate(350,217)" d="m0 0h45l15 2 8 2v1l-5 1-10 15-1 3h-2v3h-2l-1 4-8 16-7 16-6 16-4 12-6 25-2 13-1 12v37l2 20 1 2 6 1 89 1 49 1h78l93-1 126 1 13 1v1l-12 2-17 1-23 1-4 1 12 2 1 1 22 2 37 1 12-1 13-2 8-1 1-1 21-2h9l9 1 24-1 8-1 1 1 8 1 5 1h6l4-1h9l10-1 3-2 12-1 11 1 6 2 8 2 14 1 4-1h7l9-2 5-3h5v-2l35-3 2-1 2-11 2-18 1-16 2-11v-12l-1-11-5-12v-7l-3-1-2-8-5-16v-5h-2l-4-10-3-5-6-11-12-21-6-9-7-11v-2l7-2 10-1h45l10 4 9 9 9 14 8 16 11 23 9 25 8 29 4 21 2 18v34l-4 21-4 10-9 10-14 13-5 7-5 9-5 8-2-1v-2l-5-2-9 2-3-4 4-10 3-7h2l1-5h-32l-85-1h-89l-38-1h-106l8 10 4 8 1 12v53l-1 11-4 10-5 6-10 5-5 1h-105l-10-1-9-5-6-9-2-13v-66l3-10 7-8 2-3h-269l-36 1-16 1 1 7-7-1-4 1-1 6-4-4-7-9-7-8-5-4-7-10-5-13-2-10-1-10v-20l3-29 6-28 15-47 9-20 8-16 6-11 10-11z" fill="#DEA052"/>
<path transform="translate(980,844)" d="m0 0h18l21 2 1 7 3 1-2 3 15 1 3 3-1 1 4 1 3-2 5 3 2 4h-4l3 6h2l1-2 3 8 1 14 4 6-1 9 5 2 2 6-1 11-3 9-3 11v3h-2l-1 7-2 6 4 7 1 5-3 6-8 8h-3v3l-5 4-2 4-1 10 1 6-6 5-1 8-3 4-2 7-6 3-3 1-1 5-6 3-5 5-2-2-7-1 1 3-9 2h-15l-8 7-5 6-4-1v-2h-3l-1-6 3 1-1-4-2 1-5-2-2 3-3-1-2-3-5-2-2-2-4-2-3 5-5-5-3-5-4-6-3-4-2-7-6-6-9-1-1-6-7 3-3-3v-4l-13-1-3-1-1-4h-5l-3 1v-2l-5-2-4-3-7-3-2-2-11-1-4 1h-3l-6 1-3-2h-7l-6-2-2-1-1 2-4-1-5-1-5 1h-1-12l-9-2h-1l-11 1-8-1-17-2-8-1-6 1-3-1h-6l-5-1h-16l-4-2-4 1-5 1v-2l-3 1h-11l-3 2-6 1-2-2h-6l-3 4-1 2-4-1-1-1-10 1-2 4-6 1v5l-6 3-5-3-4-1-1 11-2 5-2 4-5 1-3 7v5l5-1v-2h2v2l2 1-1 4 4 2 1 5h2v2l-6-1 3 4-4 2-2 5-2 3-1 3h-3l-2-6-5-6-3 6-7 1-1-1-3 8-5 2-6 9-3-3-3-1v4l-2 1v2h-4v2h-21l-9 3-5-1-3-3-8 1-5-3-16-2-25 5-4-4-6-4-6-18-1-2-1-15-2-1-2-17-2-9-1-6-1-10 1-4-3-10-2-4 1-9 1-10v-12l-1-2 1-3h-2l-1-6-2-10v-13l3-9v-18l2-3v2h2v8 3 3l2 15h4l1-4h3v-2h2l-1-3 2-5 6 2 1 4h2l3 5 1-2h3l-1-4 2-10 4 1 2 4h-2l2 2 5 4h4l2-6 2 1-1 19h-3l-2 14v9l3 2v2l2 1v2l3 1 1 3 6 1 3-5v-21l-2 1-1-2-1-12 1-13 3-3 1-7 5 2 8-1-1-5h2v-3h3l2 8 2 3 2-1 1 9-5 10v13h1l1 5h1l1 6 2-5 1-46 2-2 3 9-1 16 1 8v-16l1-12 3-7 4 1v2h2l1 17v28l4-1v-27l1-16 1-7 4 1 2-6 1-1 2-3v-2l3-1v9l4 1 2 5h2l1-4 5 5-1 2 3-1v2l-2 2h2l2 4 4-8 2-2h3v-9l4 1 1 3 3-3 2 1 2 7 2 6-1 9 1 11v12l-1 14h2l-2 12-7 6-9 2-2-3-2 3-1-1-1-15v-17h-2v-8l-1 15h-1l-1-5h-2l-1 11h-3l-1-7v-9h-2v6 3l1 3-2 6-1 17h-7l3 7-3 1 2 3 1 1 7 1v1l18 1 9 1h6l4-1v2l5-1 19-1 118-1 139-1 45-1 13-2 2-1v-6l-5-2-9-5-4-7-5 1-4-4 5-5v-5l6-1 3-3v-9l3-3h6v2l2-1v-2l-2-1 1-3v-7l-2-8-5-3v-2l-3-1-2-5 3-2h6l2 2 2-2h6-3-2l-1-3v-7l3-3 5 1v2l7-2 4 1 1-4-3 1 1-3h8l1-1 9-1 7-4h2l-2-6-1-5 5-2z" fill="#944426"/>
<path transform="translate(621,218)" d="m0 0h166l106 1 61 1 88 3-3 2h-2l-1 3-6 2-8 1-2 1h-7l-1 1-19 2-16-1-7 1-8-4-2 2-5-2-4-1-18-1-6 1v-2l-6 4-8 3-13 1-7 2-27 3h-16l-9 1-3 2-12 2-13 1v2h-17l-5-1-6 1-4-1h-9l-1 1h-15l-5-1-2 2-13-2-1-3-5 2h-12l-3-3-7-1-6 1-5 1-3-3h-10l-6 1v-5l-7 1-5-1-8-3v-4l-10 1h-31l-13-1-14 1h-11l-1-1h-21l-4 1-1-1-7-1-1 2-1 1h-8l-5 2-3-1h-13l-6-2-7 1h-17v2h-13v-1l-15-1-7-1-3-1-4-1-2-1v-2l-10-3v-1l26-1v-1l23-1z" fill="#622713"/>
<path transform="translate(1057,298)" d="m0 0 4 1-1 1 10 1 1 2 17 1 7 3 3 5 2 13 2 14 3 9 1 15 1 2v19l-2 4-1-1-1-7-2-1v-2l-3 3-6 12-16 16-2 4-5 2-8 1h-13l-9-1-3-2-8-2 1-3-3-6-7-3-4-2-7 1-1 2-5-1-1-4-4 2h-5l-1-3-4 1h-1l-1 2-4 1-1-3v-7l3-5 4 2 2 2h2v-2l7 1 3-5v-10l3-7 5-3h7l3-3 8-2 3-1 3-12 2-3 4-12-1-4-3-1v-2h-40l-8-2-18-1-14-1-3-1h-6l1-3 19-1 15-2 28-1h8l7-1 10-1 19-3 3-2z" fill="#5F2512"/>
<path transform="translate(567,318)" d="m0 0h168l22 2 2 3-4 2-3 3-14 4-9 3-9 2-55 5-12 1-4 2h-9l-4 2-7 2h-13l-5 2-21 2-8 2-4-2h-18l-8-1-4-1-7-1-1-1-11-1-7-2-10-1-1-3-7 1-2-3-11-2-1-2-4 1-1-3-5-3 1-3 12-5 9-2 10-1z" fill="#A9592F"/>
<path transform="translate(578,777)" d="m0 0h335l46 2v2l2 1-2 1-67 5-33 2-14 1-51 2h-106l-88-2-16-1-21-2h-16l-12-1-8-1h-10v-3h-2v-2l2-1z" fill="#FBD896"/>
<path transform="translate(1043,221)" d="m0 0h13l9 14 8 11 6 11 8 14 3 7 4 8v3h2l6 21 2 8 2 1 1 8 5 11 1 19v7l-2 8-2 27-2 15-2 4-2 1-25 2h-10v2l-9 3-5 2-5 1h-8l-7 1-11-1-7-2-12-3h-9l-10 2-1 1-13 1h-9l-4 1h-7l-1-1-8-1-2-1-13 1-24 1-3-1h-12l-18 2-7 2-12 1-16 2-36-1-22-2-7-2-7-1 1-2 9-1 21-1 16-1 3-1-6-1-127-1-100 1h-79l-54-1-75-1-7-2-1-2-2-20v-37l2-18 4-20 5-19 3-8 6-15 9-20 7-14h2v-3h2l1-4 10-15h2l-2 6-6 9-6 11-11 20-8 19-8 22-3 11-5 28-1 12v31l2 23 12 2 415 2h261l13-1 28-2h6l2-1 2-18v-31l-1-4-1-15-3-7-2-14-2-13-3-12-6-15-7-15-11-21-14-23-2-3-11-1z" fill="#A95A2F"/>
<path transform="translate(403,307)" d="m0 0h26l6 1h7l2 1 4-1 9 1 11 1h44l8-1h11l5 1 11-1h195l16 1h146l26 2 3 2-4 2-8 1-32 1h-138l-34-1-68-1h-14l-20 1h-104l-8-1-29 1-31 2h-60l-10 1-1-4 3-7 13-1h10z" fill="#5F2512"/>
<path transform="translate(727,969)" d="m0 0h120l66 2 14 1h18l17-1 5-1v2l6-1 6 1 17 1 33-1 20 1 3 3-2 3h-25l-8 1-23-2-16 2-10 2-7-2-18-2-10-2-5 1h-19l-43 1h-26l-88-1h-107l-34 1-17 1h-11v-2l-13 2h-6l-4-2v2l-18-1h-49l-5-1-9 1-16 1-2-1h-8l-2 1h-12l-9 1-4-1-1-3 1-3 9-2 8 1h10l5 1 9-1h14l7 1h3l5-1h13l5-1 2 1 1-2 2 1 11 1 2-1h22l7-1h8l5 1h7l4-1v2l5-1 19-1z" fill="#5F2512"/>
<path transform="translate(1115,217)" d="m0 0 9 2 6 4 7 7 9 14 8 16 11 23 9 25 8 29 4 21 2 18v34l-2 12-2-1 1-6v-16l-3-8-11 1-1-4h-2l-4-15-2-4-1-10-2-10-3-22-1-7-2-6-3-13-3-8-2-6-9-18-1-3h-2l-8-20-2-9 4-8h2l-6-7-8-4z" fill="#FCD997"/>
<path transform="translate(350,217)" d="m0 0h7l-4 2-5 1v2l-4 4-4 5v4l-2 1-1 7h2l-1 12h-2l1 4-2 3-3 10-6 16-6 14-3 9-6 23-3 8-3 13-6 16-2 10-3 8-2 2-2 5-3 4v13l1 9 1 3h-2v2h2l2 6 4 9 1 4-5-5-5-10-4-16-1-10v-20l3-29 6-28 15-47 9-20 8-16 6-11 10-11z" fill="#FCD997"/>
<path transform="translate(1086,704)" d="m0 0 5 2 5 3 28 28 1 7 3 12 2 9v4l-3 2-6 1h-22-3l-10-3-7-3-3-2v-2l-2 2 6 9-4-2-7-8-11-11v-2l-4-2-8-9 2-1v-2l8-1 9 1 6-5 3-1 5-5 5-9 2-7z" fill="#A8592F"/>
<path transform="translate(570,875)" d="m0 0 4 1 1 3 3-3 2 1 2 7 2 6-1 9 1 11v12l-1 14h2l-2 12-7 6-9 2-2-3-2 3-1-1-1-15v-17h-2v-8l-1 15h-1l-1-5h-2l-1 11h-3l-1-7v-9h-2v6 3l1 3-2 6-1 17-6-1-2-7-4 4-2-2v-44l1-2 4-10h2v-7l4-3 1-4h4l2 5h2l1-4 5 5-1 2 3-1v2l-2 2h2l2 4 4-8 2-2h3z" fill="#5F2512"/>
<path transform="translate(315,874)" d="m0 0 4 2 2 5 3 5 1 7 4 9 2 11 2 10 5 35 3 22 2 16 1 5 3 34 1 7v21l-3 3-3-3-6-18-1-12-2-1-2-15v-5h-2l-1-9-2-11-1-5-1-9-1-7-2-6-2-17-5-31-1-12v-26z" fill="#FCD997"/>
<path transform="translate(614,777)" d="m0 0h240l4 2-13 4-21 4-50 2-16 1h-38l-22-2-13-1-20-1-20-2-30-2-13-2-1-2z" fill="#FEEEBC"/>
<path transform="translate(376,715)" d="m0 0h2l5 10v4h2l6 15 4 6v2l9 2 3 2v6l-3 1-2 4-5 5v4l-26-2-15-2-8-5-4-5-3-4h2l-1-3 2-8 8-8 7-8 12-12z" fill="#A9592F"/>
<path transform="translate(629,319)" d="m0 0h92l12 2v2l-13 2-20 1-13 2-20 1-5 1h-7l-5 2-43 1-19 1h-15l-10-1h-9l-25-4-5-2 2-1v-2l2-1 18-2z" fill="#DFA152"/>
<path transform="translate(807,420)" d="m0 0h89l21 1 11 1h54l17-1h23l4 1h29l4-1h9v2l-9 3-5 2-5 1h-8l-7 1-11-1-7-2-12-3h-9l-10 2-1 1-13 1h-9l-4 1h-7l-1-1-8-1-2-1-13 1-24 1-3-1h-12l-18 2-7 2-12 1-16 2-36-1-22-2-7-2-7-1 1-2 9-1 21-1 16-1 3-1-6-1z" fill="#BC763F"/>
<path transform="translate(497,433)" d="m0 0h56l51 1 31 1 23 3 7 2 1 2-6 2-25 1-140-1-21-2-5-1-1-3 1-2 10-2z" fill="#FCD997"/>
<path transform="translate(717,961)" d="m0 0h137l16 1 2 1-1 3-8 1-28 1-140 1h-84l-9-2 1-3 6-1z" fill="#DFA152"/>
<path transform="translate(712,474)" d="m0 0h11l6 4 5 6 1 11-6 9-5 2 4 14 7 18v1h-33l-1-2 6-16 4-15-6-2-4-6-1-3v-10l4-6 5-4z" fill="#612612"/>
<path transform="translate(1115,217)" d="m0 0 9 2 6 4 7 7 3 7 5 10v4l-5-2v-2l-6-1 3 12 8 16 5 11 4 11 4 9 4 16 3 17 5 22 3 10 1 8 5 1 1-3 2-1 1-3h4l1 4v34l-2 12-2-1 1-6v-16l-3-8-11 1-1-4h-2l-4-15-2-4-1-10-2-10-3-22-1-7-2-6-3-13-3-8-2-6-9-18-1-3h-2l-8-20-2-9 4-8h2l-6-7-8-4z" fill="#F5C87E"/>
<path transform="translate(875,453)" d="m0 0h96l57 1 13 1 91 2 26 1 2 1-2 4-6 8-5 9-5 8-2-1v-2l-5-2-9 2-3-4 4-10 3-7h2l1-5h-32l-85-1h-89l-38-1h-94v-1l43-2z" fill="#AC5E32"/>
<path transform="translate(413,222)" d="m0 0h2l-2 6-6 9-6 11-11 20-8 19-8 22-3 11-5 28-1 12v31l2 23 12 2 400 2v2h-99l-100 1h-79l-54-1-75-1-7-2-1-2-2-20v-37l2-18 4-20 5-19 3-8 6-15 9-20 7-14h2v-3h2l1-4 6-9z" fill="#AE6133"/>
<path transform="translate(1166,905)" d="m0 0 1 4-14 75-5 29-4 4-4 15-8 21-4 1v-15l1-1 3-18 2-5 2-14 2-7 5-22 2-10 1-1 3-14 5-19 4-8 2-7h2l1-4z" fill="#F5C87F"/>
<path transform="translate(350,217)" d="m0 0h7l-4 2-5 1v2l-4 4-4 5v4l-2 1-1 7h2l-1 12h-2l1 4-2 3-3 10-6 16-6 14-3 9-6 23-3 8-3 13-6 16-2 10-3 8-2 2-2 5-3 4v13l1 9 1 3h-2v2h2l2 6 4 9 1 4-5-5-5-10-4-16-1-10v-20l6-4 4-7 2-2 5-17 4-10 3-12 3-9 4-13 6-19 3-6 2-7 3-9 3-11-3-12 1-5 3-7 1-4 7-8z" fill="#F5C87F"/>
<path transform="translate(555,778)" d="m0 0h19v1l-19 2h-11v2l4 1 8-1 35 4 24 1 57 2h137l22-1 5-1 22-1 11-2 41-3 9-2-1-2h19l22 1v2l2 1-2 1-67 5-33 2-14 1-51 2h-106l-88-2-16-1-21-2h-16l-12-1-8-1h-10v-3h-2v-2l2-1z" fill="#F5C87E"/>
<path transform="translate(675,1096)" d="m0 0h145l8 1-3 2-18 2-23 2-20 1-76 1h-13l-24-2-3-2 2-4z" fill="#FBD896"/>
<path transform="translate(648,462)" d="m0 0 3 1-3 1-3 11v3 10l6-9 7-9 7-6 6 2 2 6-1 7h-2l-2 11-2 5-3 17-2 8-2 4-4 2-3-1-4-6-2-7-3 2-2-5-1-5v-23l1-10 4-6z" fill="#FBD895"/>
<path transform="translate(836,320)" d="m0 0h25l31 1 2 4-6 7-3 2-18 1-7 1-10-1-6-1-5 1h-2-9l-5-1-4 1-7-2-2-2-9-1-3-4 2-5z" fill="#A8582E"/>
<path transform="translate(457,453)" d="m0 0h54l88 1 25 2 28 1-1 2-70-1h-199l-36 1-16 1 1 7-7-1-4 1-1 6-4-4-6-8 1-3 82-4z" fill="#AB5C31"/>
<path transform="translate(315,874)" d="m0 0 4 2 2 5 3 5 1 7 4 9 2 11 2 10 5 35 3 22 2 16 1 5 3 34 1 7v21l-3 3-3-3-6-18-1-12-2-1-2-15v-5h-2l-1-9-2-11-1-5-1-9-1-7-2-6-2-17-5-31-1-12v-26zm3 19v2l-3-1v16l7 48 4 21 6 34 4 19 2 7 2 9 3 3 2-7-1-17-3-23-3-26-3-25-2-8-2-14-2-10-1-3-1-7-3-9-3-6z" fill="#F5C87E"/>
<path transform="translate(717,471)" d="m0 0 12 2 5 5 5 7 1 9-1 7-3 11 1 12 1 4-1 10v4l-14 2h-11l-12-4-1-4 2-4-1-8 1-7-1-6-2-4v-3h-2l-4-8-1-8 1-4h2v-3l3-3h2l1-3 7-3zm-5 3-6 3-5 6-1 2v10l4 8 5 3h2l-6 21-4 11 1 1h33l-6-17-4-11-1-5 5-2 6-9-1-11-7-8-4-2z" fill="#F4C77E"/>
<path transform="translate(708,834)" d="m0 0h52l35 1 21 2 3 2-43 1h-168l-13-1-3-2 4-1 20-1z" fill="#FEEEBC"/>
<path transform="translate(317,256)" d="m0 0 1 3-3 9-3 21-1 10-2 7-5 17-3 11-3 7-3 9-5 9h-2v2l-4 2 1-13 6-25 13-41 9-21z" fill="#FDEEBC"/>
<path transform="translate(381,779)" d="m0 0h31l31 1 10 2-1 4-7 2-27 3h-13l-13-1-22-1-14-1-2-4 4-4z" fill="#F5C87E"/>
<path transform="translate(583,878)" d="m0 0h3v5l2 1 1 5h1l3 10 1 11v11l2 14h4l1 9-1 7-6 1v2l-6 2-8 1v-3l3-2-2-4h2v-7l2-5h-2v-32l-1-8 1-7-1-2 1-2-2-1 2-1z" fill="#954426"/>
<path transform="translate(497,433)" d="m0 0h56l51 1 31 1 23 3 7 2 1 2-6 2-25 1-140-1-21-2-5-1-1-3 1-2 10-2zm8 2-6 1 1 5 23 2h122l9-1 2-2-10-2-32-2-53-1z" fill="#F5C87E"/>
<path transform="translate(1077,956)" d="m0 0h2l1 4-2 20-2 8-1 13-3 10-3 17-5 19-2 7-3-1v-32l5-26 6-21 5-15z" fill="#F5C87E"/>
<path transform="translate(413,222)" d="m0 0h2l-2 6-6 9-6 11-11 20-8 19-8 22-3 11-5 28-1 12v31l2 23 12 2 86 1v2h25v1h-43l-75-1-7-2-1-2-2-20v-37l2-18 4-20 5-19 3-8 6-15 9-20 7-14h2v-3h2l1-4 6-9z" fill="#AD5F32"/>
<path transform="translate(1155,264)" d="m0 0 3 4 9 20 10 30 7 28-1 5-1 2h-4l-4-10-3-10-4-15-4-10-3-11-3-8-4-10-1-5 3-7z" fill="#FDEEBC"/>
<path transform="translate(518,884)" d="m0 0 4 1v2h2l1 17v33l-1 2h-3l-2-9-1 3-3 1-2 13-1 2h-2l-1-6 1-4-2-1 1-50 2-2 3 9-1 16 1 8v-16l1-12z" fill="#5F2512"/>
<path transform="translate(1079,778)" d="m0 0h13l14 2v4l-1 1-15 2h-53l-13-1-11-2-12-1h-3-2v-3l30-1z" fill="#F5C87E"/>
<path transform="translate(1101,457)" d="m0 0h31l26 1 2 1-2 4-6 8-5 9-5 8-2-1v-2l-5-2-9 2-3-4 4-10 3-7h2l1-5h-32z" fill="#AA5B30"/>
<path transform="translate(794,519)" d="m0 0h1v18l-2 10-5 1-1-3h-3l-1 5-5 4-4 7-3 2h-8l-2-2 1-5 1-3h2l1-6h2v-2h2l1-4 6-7h2l1-3h2l1-3 6-1v-3h2l2-4z" fill="#F5C87E"/>
<path transform="translate(1158,932)" d="m0 0 4 1-2 13-2 11-2 2-4 18-5 20-4 17-5 15-4 2 2-22 3-10 6-30 3-6 1-5 1-4 1-5 4-11z" fill="#FCD997"/>
<path transform="translate(648,462)" d="m0 0 3 1-3 1-3 11v3 10l6-9 1 2-3 11v18l3 8 4-1 3-5 3-18 3-8 1-9h2l-2-5v-4l-4-1 3-3 6 2 2 6-1 7h-2l-2 11-2 5-3 17-2 8-2 4-4 2-3-1-4-6-2-7-3 2-2-5-1-5v-23l1-10 4-6z" fill="#F5C87E"/>
<path transform="translate(579,298)" d="m0 0h52v2l5-1 11 1 5 1v2h-6l-7 2-52 1-17-1-2-1-5 1-7-2v-2l10-2z" fill="#A8582E"/>
<path transform="translate(1043,221)" d="m0 0h13l9 14 8 11 6 11 8 14 3 7 4 8v3h2l6 21 2 8 2 1 1 8 5 11 1 19v7l-2 8-1 16h-1v-33l-1-14-4-17-3-8v-4l-3-1-4-11-6-15-7-15-11-21-14-23-2-3-11-1z" fill="#AD5F32"/>
<path transform="translate(487,829)" d="m0 0 5 1-1 4-3-1v2l-4 1-2-1v2l-10 3-6 5-1-3-4-1-6-1-13 1-7-1h-28l-12 2h-4v2h-3l3 10 4 12 2 13 2 5 1 12 3 9v7l-4-5-1-9-2-4-1-8-2-7-5-13-3-10-2-5v-6l4-4 13-2 14-2h23l6 1 9-2 7 1 8 3 9-5 4-1 7-2z" fill="#BB753E"/>
<path transform="translate(708,834)" d="m0 0h52l35 1 21 2 3 2-43 1h-32v-1h29v-2h-151l-2 1 40 1v1h-52l-13-1-3-2 4-1 20-1z" fill="#FAD490"/>
<path transform="translate(567,318)" d="m0 0h161v2h-99l-84 2-19 2 1 3 13 3 16 2h10l7 1-4 2-27-2-17-2-9-2-1-5 7-2 13-2 2-1z" fill="#AC5E31"/>
<path transform="translate(675,1096)" d="m0 0h59v1l-54 1-5 1 1 2 4 1h74l26-1 25-2 6-1-16-1v-1h25l8 1-3 2-18 2-23 2-20 1-76 1h-13l-24-2-3-2 2-4z" fill="#F5C87E"/>
<path transform="translate(675,964)" d="m0 0h116l4 2-20 1-108 1h-27l-10-1v-1l9-1z" fill="#FCDFA3"/>
<path transform="translate(1115,729)" d="m0 0 7 6 2 2 1 7 3 12 2 9v4l-3 2-6 1h-22v-2l14-1 5-1-2-16v-11l-3-10z" fill="#BC763F"/>
<path transform="translate(352,739)" d="m0 0 2 4-2 4 2 4 4 4 5 8v4h2v2l5 2 13 2v1h-12l-15-2-8-5-4-5-3-4h2l-1-3 2-8z" fill="#BB753E"/>
<path transform="translate(403,914)" d="m0 0 2 4 2 7 3 18 2 17-2 15 2 6 3 8 2 34 1 14-1 13-1 8v16h-1l-2-20v-12l-1-7 1-28-1-19-4-10v-27l-3-17-2-9z" fill="#BC763F"/>
<path transform="translate(497,896)" d="m0 0 2 1 1 6v46l-2 2-6-3-1-9 1-10-1-7-1-5v-6l4-1v-4h2z" fill="#5F2512"/>
<path transform="translate(324,934)" d="m0 0 2 1 5 21 2 14 2 10 1 11 1 16h-2v-3h-2l-4-21-5-27-2-14v-7z" fill="#FEEEBC"/>
<path transform="translate(363,364)" d="m0 0h1l2 42 1 8 12 2 86 1v2h25v1h-43l-75-1-7-2-1-2-2-20v-30z" fill="#AC5E31"/>
<path transform="translate(547,920)" d="m0 0h2l2 15h1l1-11h4l2 10 1 3-1 5v9 3l-5 5-2 1-3-2v-6h2v-2l-6-1v-11l2-7v-3l-1-3z" fill="#964626"/>
<path transform="translate(1097,309)" d="m0 0 4 3 3 10 4 16 1 7 1 10v16l-1 28-2-3-1-25v-6l-1-4-1-15-3-7-2-14z" fill="#A6562E"/>
<path transform="translate(567,867)" d="m0 0 4 5v13l-5 1-5 9-2-1v-4l-3 1 1-3-1-1-1-4-3-2-1 3-4-1-1-5h3l1-4-3-1 5-2 4 2 1-2 4 1 2 3z" fill="#944325"/>
<path transform="translate(854,961)" d="m0 0h31l2 4-8 1-13 3h-171v-1l140-1 28-1 8-1 1-2-18-1z" fill="#AE6133"/>
<path transform="translate(658,475)" d="m0 0h3v9l-2 9-2 17-3 3-2-1-1-3v-20l3-10z" fill="#FEEEBC"/>
<path transform="translate(509,886)" d="m0 0 1 3-1 47h-2l-1 4-3-4-1-7h-1v-14l5-10 1-14z" fill="#A6562D"/>
<path transform="translate(332,457)" d="m0 0h26v1l-28 2 1 7-7-1-4 1-1 6-4-4-6-8 1-3z" fill="#AA5A30"/>
<path transform="translate(739,488)" d="m0 0h1v10l-3 10-1 4 1 12 1 4-1 8-3 2-5-14 1-4 2-16 6-12z" fill="#F4C87E"/>
<path transform="translate(487,829)" d="m0 0 5 1-1 4-3-1v2l-4 1-2-1v2l-10 3-6 5-1-3-4-1-6-1-13 1-7-1h-28l-12 2-2-1 7-2 14-2h23l6 1 9-2 7 1 8 3 9-5 4-1 7-2z" fill="#BC763F"/>
<path transform="translate(732,478)" d="m0 0 3 1 4 6v7l-6 12-2 18-2 2-5-13v-5l6-4 4-7-1-11-2-5z" fill="#FAD695"/>
<path transform="translate(1099,304)" d="m0 0 2 3 2 7 1 4 2 1 1 8 5 11 1 19v7l-2 8-1 16h-1v-33l-1-14-4-17-3-8-2-7z" fill="#BC763F"/>
<path transform="translate(641,555)" d="m0 0 5 4 5 5 4 2h-4v2l7 2 18 1 95 1v1h-105l-10-1-9-5-6-9z" fill="#A9592F"/>
<path transform="translate(675,964)" d="m0 0h29v1h-12v2l-25 1h-27l-10-1v-1l9-1z" fill="#FAD490"/>
<path transform="translate(661,565)" d="m0 0h52l41 1v1l-42 1h-27l-24-1z" fill="#B26737"/>
<path transform="translate(532,321)" d="m0 0h7l-1 2-12 1 1 3 13 3 16 2h10l7 1-4 2-27-2-17-2-9-2-1-5 7-2z" fill="#BC763F"/>
<path transform="translate(616,835)" d="m0 0h36v1l-30 1-2 1 40 1v1h-52l-13-1-3-2 4-1z" fill="#F8D18B"/>
<path transform="translate(1070,984)" d="m0 0h1v9l-2 13-4 15-3-1v-9l3-16 4-10z" fill="#FCD997"/>
<path transform="translate(700,325)" d="m0 0h15l-4 2-4 1-17 1-10 2-17 1h-11l4-3h9l2-1 30-2z" fill="#BC763F"/>
<path transform="translate(668,320)" d="m0 0h29l1 2-7 1-37 1-9-1v-2z" fill="#F5C87E"/>
<path transform="translate(1058,779)" d="m0 0h15l2 4-8 1-25-1-2-2z" fill="#FBD794"/>
<path transform="translate(509,842)" d="m0 0h4l2 5-2 5-6-2-1 5h-5l-1-10 2-2 4 1 1 2z" fill="#954426"/>
<path transform="translate(1068,756)" d="m0 0 9 3v2l10 3v2l12 3-3 3-10-3-7-3-3-2v-2l-4 2-5-6z" fill="#BC763F"/>
<path transform="translate(699,483)" d="m0 0h1l1 12 4 8 6 3-1 7-2 4-4-8-2-6-5-8v-8z" fill="#F7CF8B"/>
<path transform="translate(772,835)" d="m0 0h23l21 2 3 2h-25l-9-2-13-1z" fill="#F5C87E"/>
<path transform="translate(785,231)" d="m0 0h2v2h9l5 3 1 4-5 2-4-2 1-3h-2v2h-5l-3-5z" fill="#944325"/>
<path transform="translate(766,835)" d="m0 0 19 1 9 2v1l-18 1h-32v-1h29v-2h-7z" fill="#FAD592"/>
<path transform="translate(854,961)" d="m0 0h31l2 4-8 1-7 1h-9v-1l8-1 1-2-18-1z" fill="#BC763F"/>
<path transform="translate(537,319)" d="m0 0h28l21 1v1l-47 1-4-2z" fill="#B06435"/>
<path transform="translate(363,364)" d="m0 0h1l1 27v15h-2l-1-11v-30z" fill="#AA5C30"/>
<path transform="translate(760,964)" d="m0 0h31l4 2-20 1h-17z" fill="#F6CC83"/>
<path transform="translate(1095,531)" d="m0 0h2l-1 6-6 8-1 2-4 1 1-5 1-4h2l1-3h2l1-4z" fill="#A9592F"/>
<path transform="translate(641,555)" d="m0 0 5 4 5 5 4 2h-4v2l7 2 14 1v1h-16l-9-5-6-9z" fill="#B26837"/>
<path transform="translate(732,478)" d="m0 0 3 1 4 6v7l-3 6-3 1 1-10-2-6-1-4z" fill="#FAD999"/>
<path transform="translate(516,934)" d="m0 0 4 3v9l-5 5-1-4-1-10z" fill="#A7572E"/>
<path transform="translate(491,841)" d="m0 0 4 2v4h-2l-1 4-4 2-3-4 3-7z" fill="#8C3F22"/>
<path transform="translate(578,951)" d="m0 0 1 3v7l-12 2v-2h3l-1-6 7-2h2z" fill="#974627"/>
<path transform="translate(520,877)" d="m0 0 4 1 1 3v16h-1v-10h-2l-1-2h-3l-1 5-2-4 2-5z" fill="#934325"/>
<path transform="translate(569,968)" d="m0 0 2 1 3-1 8 1h12l14 1v1l-23 1v-2l-4 2h-11z" fill="#954426"/>
<path transform="translate(370,455)" d="m0 0h13l-1 3h-24l-8-1v-1z" fill="#AF6234"/>
<path transform="translate(639,965)" d="m0 0h16v1l12 1v1h-27l-10-1v-1z" fill="#F6CB83"/>
<path transform="translate(364,406)" d="m0 0h2l1 8 12 2 2 3h-9l-7-2-1-2z" fill="#AD5F32"/>
<path transform="translate(771,233)" d="m0 0 10 1v2l5 2-8 4-3-1-1-5h-3z" fill="#944325"/>
<path transform="translate(1065,975)" d="m0 0 1 4-7 14-3 12-2-2 3-14 3-6h2l2-5z" fill="#BC763F"/>
<path transform="translate(717,471)" d="m0 0 12 2 4 5-3 2-5-4-2-1-13-1 2-2z" fill="#F3C881"/>
<path transform="translate(982,384)" d="m0 0 4 2 1 6-2 1v3l-4 1-1-3v-7z" fill="#692B16"/>
<path transform="translate(1099,317)" d="m0 0 2 3 1 8 2 6 1 7v5l-2-2-2-5-2-14z" fill="#954426"/>
<path transform="translate(1051,876)" d="m0 0 4 4 1 10 3 14-1 5h-1l-1-11-3-5v-11z" fill="#A9592F"/>
<path transform="translate(648,462)" d="m0 0 3 1-3 1-3 11-2 4h-2v-8l4-6z" fill="#EFBE73"/>
<path transform="translate(742,964)" d="m0 0h18l-2 3h-19l3-1z" fill="#FBD896"/>
<path transform="translate(559,824)" d="m0 0h2l-1 4h3l1 2h2v5l-3 3v-3h-2v-2h-2l-1 2-1-3z" fill="#B9723C"/>
<path transform="translate(413,222)" d="m0 0h2l-2 6-6 9-5 3 2-5 7-10z" fill="#AE6133"/>
<path transform="translate(1054 1e3)" d="m0 0h1v8l-4 14-3 11h-1v-7l3-10z" fill="#BC763F"/>
<path transform="translate(558,914)" d="m0 0 2 2-1 7h2v14l-3-3z" fill="#A1512B"/>
<path transform="translate(699,483)" d="m0 0h1l1 12 2 6-3-1-3-5v-8z" fill="#F5CC87"/>
<path transform="translate(713,483)" d="m0 0 1 4-1 8-4-1v-7z" fill="#D7964D"/>
<path transform="translate(599,963)" d="m0 0h10v1l-6 1-1 2 2 1h-8l-2-4z" fill="#BC763F"/>
<path transform="translate(607,968)" d="m0 0 19 1v2h-17z" fill="#A2522C"/>
<path transform="translate(1156,956)" d="m0 0h1l-1 11-2 12-2-2 1-7z" fill="#F6CD87"/>
<path transform="translate(475,921)" d="m0 0 2 2v14l-3-1v-9z" fill="#DFA152"/>
<path transform="translate(399,899)" d="m0 0 3 1 1 5v7l-4-5z" fill="#BC763F"/>
<path transform="translate(510,872)" d="m0 0 2 4v12l-3-3v-11z" fill="#914224"/>
<path transform="translate(1082,265)" d="m0 0 3 3 5 10 2 3-1 3-5-9-4-8z" fill="#BC763F"/>
<path transform="translate(1043,221)" d="m0 0h13l5 8h-3l-4-6-11-1z" fill="#C0783E"/>
<path transform="translate(547,885)" d="m0 0h2l1 3-1 7v6l-2 1z" fill="#934325"/>
<path transform="translate(596,836)" d="m0 0h11l-4 3h-8l-3-2z" fill="#F5C87E"/>
<path transform="translate(501,835)" d="m0 0 6 1 2 1v2l-4 1-3-1-5 2 3-3z" fill="#BB753E"/>
<path transform="translate(375,301)" d="m0 0 1 2-4 12h-2l2-10z" fill="#AC5E31"/>
<path transform="translate(728,320)" d="m0 0h8l4 2-3 2h-8l4-1v-2h-5z" fill="#BC763F"/>
<path transform="translate(641,555)" d="m0 0 5 4 3 7 1 2-4-2-5-8z" fill="#AA5D32"/>
<path transform="translate(709,424)" d="m0 0h10l2 2-2 1h-8l-2-1z" fill="#BD773F"/>
<path transform="translate(580,949)" d="m0 0 3 1 1 3-4 1v4h-2l1-8z" fill="#A6562D"/>
<path transform="translate(370,315)" d="m0 0h1l-1 11-3 2 1-8z" fill="#AE6033"/>
</svg>
